<mxfile host="app.diagrams.net" modified="2022-04-27T15:32:36.556Z" agent="5.0 (Windows NT 10.0; Win64; x64) AppleWebKit/537.36 (KHTML, like Gecko) Chrome/100.0.4896.127 Safari/537.36 Edg/100.0.1185.50" etag="NP-nqWE-4yjRjv7TMgV1" version="17.4.6" type="github">
  <diagram id="0nlcSlgoY7Tgn-A3_Evd" name="Page-1">
    <mxGraphModel dx="1384" dy="772" grid="1" gridSize="10" guides="1" tooltips="1" connect="1" arrows="1" fold="1" page="1" pageScale="1" pageWidth="827" pageHeight="1169" math="0" shadow="0">
      <root>
        <mxCell id="0" />
        <mxCell id="1" parent="0" />
        <mxCell id="5ykrlOguuD8pohVd0Vsc-59" value="" style="whiteSpace=wrap;html=1;shape=mxgraph.basic.document;fillColor=none;" vertex="1" parent="1">
          <mxGeometry x="120" y="690" width="560" height="310" as="geometry" />
        </mxCell>
        <mxCell id="5ykrlOguuD8pohVd0Vsc-5" value="" style="sketch=0;aspect=fixed;html=1;points=[];align=center;image;fontSize=12;image=img/lib/mscae/Key.svg;fillColor=none;" vertex="1" parent="1">
          <mxGeometry x="1040" y="680" width="40" height="64.52" as="geometry" />
        </mxCell>
        <mxCell id="5ykrlOguuD8pohVd0Vsc-6" value="" style="whiteSpace=wrap;html=1;shape=mxgraph.basic.document;fillColor=none;" vertex="1" parent="1">
          <mxGeometry x="900" y="824.52" width="80" height="100" as="geometry" />
        </mxCell>
        <mxCell id="5ykrlOguuD8pohVd0Vsc-7" value="" style="aspect=fixed;html=1;points=[];align=center;image;fontSize=12;image=img/lib/azure2/security/Key_Vaults.svg;fillColor=none;" vertex="1" parent="1">
          <mxGeometry x="1020" y="844.52" width="80" height="80" as="geometry" />
        </mxCell>
        <mxCell id="5ykrlOguuD8pohVd0Vsc-9" value="&lt;b&gt;&lt;font style=&quot;font-size: 24px&quot;&gt;Master Key&lt;/font&gt;&lt;/b&gt;" style="text;html=1;strokeColor=none;fillColor=none;align=center;verticalAlign=middle;whiteSpace=wrap;rounded=0;" vertex="1" parent="1">
          <mxGeometry x="1020" y="764.52" width="80" height="40" as="geometry" />
        </mxCell>
        <mxCell id="5ykrlOguuD8pohVd0Vsc-10" value="&lt;b&gt;&lt;font style=&quot;font-size: 24px&quot;&gt;inode&lt;/font&gt;&lt;/b&gt;" style="text;html=1;strokeColor=none;fillColor=none;align=center;verticalAlign=middle;whiteSpace=wrap;rounded=0;" vertex="1" parent="1">
          <mxGeometry x="900" y="944.52" width="80" height="40" as="geometry" />
        </mxCell>
        <mxCell id="5ykrlOguuD8pohVd0Vsc-11" value="&lt;b&gt;&lt;font style=&quot;font-size: 24px&quot;&gt;CI_Enc Key&lt;/font&gt;&lt;/b&gt;" style="text;html=1;strokeColor=none;fillColor=none;align=center;verticalAlign=middle;whiteSpace=wrap;rounded=0;" vertex="1" parent="1">
          <mxGeometry x="1020" y="944.52" width="80" height="40" as="geometry" />
        </mxCell>
        <mxCell id="5ykrlOguuD8pohVd0Vsc-36" value="" style="shape=image;html=1;verticalAlign=top;verticalLabelPosition=bottom;labelBackgroundColor=#ffffff;imageAspect=0;aspect=fixed;image=https://cdn1.iconfinder.com/data/icons/bootstrap-vol-3/16/hand-index-128.png;fontSize=32;fillColor=none;" vertex="1" parent="1">
          <mxGeometry x="200" y="610" width="60" height="60" as="geometry" />
        </mxCell>
        <mxCell id="5ykrlOguuD8pohVd0Vsc-38" style="edgeStyle=orthogonalEdgeStyle;rounded=0;orthogonalLoop=1;jettySize=auto;html=1;exitX=0.5;exitY=0;exitDx=0;exitDy=0;entryX=0.5;entryY=1;entryDx=0;entryDy=0;fontSize=32;endArrow=none;endFill=0;strokeWidth=5;startArrow=none;" edge="1" parent="1" source="5ykrlOguuD8pohVd0Vsc-37" target="5ykrlOguuD8pohVd0Vsc-36">
          <mxGeometry relative="1" as="geometry">
            <mxPoint x="230" y="690" as="sourcePoint" />
          </mxGeometry>
        </mxCell>
        <mxCell id="5ykrlOguuD8pohVd0Vsc-37" value="&lt;b&gt;Policy&lt;/b&gt;" style="rounded=1;whiteSpace=wrap;html=1;fontSize=32;fillColor=none;strokeWidth=5;" vertex="1" parent="1">
          <mxGeometry x="150" y="720" width="160" height="90" as="geometry" />
        </mxCell>
        <mxCell id="5ykrlOguuD8pohVd0Vsc-40" value="" style="ellipse;whiteSpace=wrap;html=1;aspect=fixed;fontSize=32;fillColor=#ffe6cc;strokeWidth=5;strokeColor=#000000;" vertex="1" parent="1">
          <mxGeometry x="150" y="440" width="160" height="160" as="geometry" />
        </mxCell>
        <mxCell id="5ykrlOguuD8pohVd0Vsc-41" value="" style="ellipse;whiteSpace=wrap;html=1;aspect=fixed;fontSize=32;strokeWidth=5;" vertex="1" parent="1">
          <mxGeometry x="190" y="480" width="80" height="80" as="geometry" />
        </mxCell>
        <mxCell id="5ykrlOguuD8pohVd0Vsc-42" value="" style="endArrow=none;html=1;rounded=0;fontSize=32;exitX=0;exitY=0.5;exitDx=0;exitDy=0;entryX=0;entryY=0.5;entryDx=0;entryDy=0;strokeWidth=5;" edge="1" parent="1" source="5ykrlOguuD8pohVd0Vsc-40" target="5ykrlOguuD8pohVd0Vsc-41">
          <mxGeometry width="50" height="50" relative="1" as="geometry">
            <mxPoint x="490" y="560" as="sourcePoint" />
            <mxPoint x="540" y="510" as="targetPoint" />
          </mxGeometry>
        </mxCell>
        <mxCell id="5ykrlOguuD8pohVd0Vsc-43" value="" style="endArrow=none;html=1;rounded=0;fontSize=32;exitX=1;exitY=0.5;exitDx=0;exitDy=0;strokeWidth=5;" edge="1" parent="1" source="5ykrlOguuD8pohVd0Vsc-41">
          <mxGeometry width="50" height="50" relative="1" as="geometry">
            <mxPoint x="370" y="560" as="sourcePoint" />
            <mxPoint x="310" y="520" as="targetPoint" />
          </mxGeometry>
        </mxCell>
        <mxCell id="5ykrlOguuD8pohVd0Vsc-44" value="" style="endArrow=none;html=1;rounded=0;fontSize=32;exitX=0.5;exitY=1;exitDx=0;exitDy=0;strokeWidth=5;" edge="1" parent="1" source="5ykrlOguuD8pohVd0Vsc-40">
          <mxGeometry width="50" height="50" relative="1" as="geometry">
            <mxPoint x="180" y="610" as="sourcePoint" />
            <mxPoint x="230" y="560" as="targetPoint" />
          </mxGeometry>
        </mxCell>
        <mxCell id="5ykrlOguuD8pohVd0Vsc-45" value="" style="endArrow=none;html=1;rounded=0;fontSize=32;exitX=0.5;exitY=0;exitDx=0;exitDy=0;strokeWidth=5;" edge="1" parent="1" source="5ykrlOguuD8pohVd0Vsc-41">
          <mxGeometry width="50" height="50" relative="1" as="geometry">
            <mxPoint x="180" y="490" as="sourcePoint" />
            <mxPoint x="230" y="440" as="targetPoint" />
          </mxGeometry>
        </mxCell>
        <mxCell id="5ykrlOguuD8pohVd0Vsc-46" value="" style="endArrow=none;html=1;rounded=0;fontSize=32;strokeWidth=5;" edge="1" parent="1">
          <mxGeometry width="50" height="50" relative="1" as="geometry">
            <mxPoint x="260" y="490" as="sourcePoint" />
            <mxPoint x="285" y="465" as="targetPoint" />
          </mxGeometry>
        </mxCell>
        <mxCell id="5ykrlOguuD8pohVd0Vsc-47" value="" style="endArrow=none;html=1;rounded=0;fontSize=32;strokeWidth=5;" edge="1" parent="1" target="5ykrlOguuD8pohVd0Vsc-40">
          <mxGeometry width="50" height="50" relative="1" as="geometry">
            <mxPoint x="260" y="545" as="sourcePoint" />
            <mxPoint x="285" y="520" as="targetPoint" />
          </mxGeometry>
        </mxCell>
        <mxCell id="5ykrlOguuD8pohVd0Vsc-48" value="" style="endArrow=none;html=1;rounded=0;fontSize=32;exitX=0;exitY=0;exitDx=0;exitDy=0;strokeWidth=5;" edge="1" parent="1" source="5ykrlOguuD8pohVd0Vsc-40">
          <mxGeometry width="50" height="50" relative="1" as="geometry">
            <mxPoint x="180" y="515" as="sourcePoint" />
            <mxPoint x="205" y="490" as="targetPoint" />
          </mxGeometry>
        </mxCell>
        <mxCell id="5ykrlOguuD8pohVd0Vsc-50" value="" style="endArrow=none;html=1;rounded=0;fontSize=32;strokeWidth=5;" edge="1" parent="1">
          <mxGeometry width="50" height="50" relative="1" as="geometry">
            <mxPoint x="175" y="575" as="sourcePoint" />
            <mxPoint x="200" y="550" as="targetPoint" />
          </mxGeometry>
        </mxCell>
        <mxCell id="5ykrlOguuD8pohVd0Vsc-52" value="" style="edgeStyle=orthogonalEdgeStyle;rounded=0;orthogonalLoop=1;jettySize=auto;html=1;exitX=0.5;exitY=0;exitDx=0;exitDy=0;entryX=0.5;entryY=1;entryDx=0;entryDy=0;fontSize=32;endArrow=none;endFill=0;strokeWidth=5;" edge="1" parent="1" source="5ykrlOguuD8pohVd0Vsc-37">
          <mxGeometry relative="1" as="geometry">
            <mxPoint x="230" y="720" as="sourcePoint" />
            <mxPoint x="230" y="720" as="targetPoint" />
          </mxGeometry>
        </mxCell>
        <mxCell id="5ykrlOguuD8pohVd0Vsc-55" value="" style="shape=flexArrow;endArrow=classic;html=1;rounded=0;fontSize=32;strokeWidth=5;width=20;fillColor=#7EA6E0;strokeColor=none;" edge="1" parent="1">
          <mxGeometry width="50" height="50" relative="1" as="geometry">
            <mxPoint x="340" y="519.3399999999999" as="sourcePoint" />
            <mxPoint x="420" y="519.17" as="targetPoint" />
          </mxGeometry>
        </mxCell>
        <mxCell id="5ykrlOguuD8pohVd0Vsc-57" style="edgeStyle=orthogonalEdgeStyle;rounded=0;orthogonalLoop=1;jettySize=auto;html=1;exitX=0.5;exitY=0;exitDx=0;exitDy=0;entryX=0.5;entryY=1;entryDx=0;entryDy=0;fontSize=32;endArrow=classic;endFill=1;strokeWidth=5;fillColor=#7EA6E0;" edge="1" parent="1" source="5ykrlOguuD8pohVd0Vsc-56" target="5ykrlOguuD8pohVd0Vsc-37">
          <mxGeometry relative="1" as="geometry" />
        </mxCell>
        <mxCell id="5ykrlOguuD8pohVd0Vsc-56" value="&lt;b&gt;crypt_info&lt;/b&gt;" style="rounded=1;whiteSpace=wrap;html=1;fontSize=32;fillColor=none;strokeWidth=5;" vertex="1" parent="1">
          <mxGeometry x="150" y="880" width="160" height="90" as="geometry" />
        </mxCell>
        <mxCell id="5ykrlOguuD8pohVd0Vsc-58" value="&lt;font style=&quot;font-size: 24px&quot;&gt;master key&lt;br&gt;descriptor&lt;/font&gt;" style="text;html=1;strokeColor=none;fillColor=none;align=center;verticalAlign=middle;whiteSpace=wrap;rounded=0;fontSize=32;" vertex="1" parent="1">
          <mxGeometry x="60" y="600" width="160" height="80" as="geometry" />
        </mxCell>
        <mxCell id="5ykrlOguuD8pohVd0Vsc-61" value="" style="sketch=0;aspect=fixed;html=1;points=[];align=center;image;fontSize=12;image=img/lib/mscae/Key.svg;fillColor=none;" vertex="1" parent="1">
          <mxGeometry x="440" y="487.74" width="40" height="64.52" as="geometry" />
        </mxCell>
        <mxCell id="5ykrlOguuD8pohVd0Vsc-62" value="" style="endArrow=classic;html=1;rounded=0;fontSize=32;strokeWidth=5;fillColor=#7EA6E0;entryX=1;entryY=0;entryDx=0;entryDy=0;" edge="1" parent="1" target="5ykrlOguuD8pohVd0Vsc-56">
          <mxGeometry width="50" height="50" relative="1" as="geometry">
            <mxPoint x="460" y="560" as="sourcePoint" />
            <mxPoint x="620" y="650" as="targetPoint" />
          </mxGeometry>
        </mxCell>
        <mxCell id="5ykrlOguuD8pohVd0Vsc-63" value="&lt;font style=&quot;font-size: 24px&quot;&gt;write back&lt;/font&gt;" style="edgeLabel;html=1;align=center;verticalAlign=middle;resizable=0;points=[];fontSize=32;" vertex="1" connectable="0" parent="5ykrlOguuD8pohVd0Vsc-62">
          <mxGeometry x="-0.3661" y="1" relative="1" as="geometry">
            <mxPoint as="offset" />
          </mxGeometry>
        </mxCell>
        <mxCell id="5ykrlOguuD8pohVd0Vsc-64" value="&lt;b&gt;&lt;font style=&quot;font-size: 40px&quot;&gt;+&lt;/font&gt;&lt;/b&gt;" style="text;html=1;strokeColor=none;fillColor=none;align=center;verticalAlign=middle;whiteSpace=wrap;rounded=0;fontSize=32;" vertex="1" parent="1">
          <mxGeometry x="500" y="505" width="40" height="30" as="geometry" />
        </mxCell>
        <mxCell id="5ykrlOguuD8pohVd0Vsc-65" value="" style="endArrow=classic;html=1;rounded=0;fontSize=40;strokeWidth=5;fillColor=#7EA6E0;" edge="1" parent="1">
          <mxGeometry width="50" height="50" relative="1" as="geometry">
            <mxPoint x="560" y="500" as="sourcePoint" />
            <mxPoint x="640" y="460" as="targetPoint" />
          </mxGeometry>
        </mxCell>
        <mxCell id="5ykrlOguuD8pohVd0Vsc-66" value="" style="endArrow=classic;html=1;rounded=0;fontSize=40;strokeWidth=5;fillColor=#7EA6E0;" edge="1" parent="1">
          <mxGeometry width="50" height="50" relative="1" as="geometry">
            <mxPoint x="560" y="540" as="sourcePoint" />
            <mxPoint x="640" y="580" as="targetPoint" />
          </mxGeometry>
        </mxCell>
        <mxCell id="5ykrlOguuD8pohVd0Vsc-69" value="&lt;b&gt;nonce&lt;/b&gt;" style="rounded=1;whiteSpace=wrap;html=1;fontSize=32;strokeColor=#000000;strokeWidth=5;fillColor=#E6FFCC;" vertex="1" parent="1">
          <mxGeometry x="660" y="550" width="160" height="60" as="geometry" />
        </mxCell>
        <mxCell id="5ykrlOguuD8pohVd0Vsc-70" value="&lt;font style=&quot;font-size: 24px&quot;&gt;indirect&lt;/font&gt;" style="text;html=1;strokeColor=none;fillColor=none;align=center;verticalAlign=middle;whiteSpace=wrap;rounded=0;fontSize=32;" vertex="1" parent="1">
          <mxGeometry x="530" y="435" width="60" height="30" as="geometry" />
        </mxCell>
        <mxCell id="5ykrlOguuD8pohVd0Vsc-71" value="&lt;font style=&quot;font-size: 24px&quot;&gt;direct&lt;/font&gt;" style="text;html=1;strokeColor=none;fillColor=none;align=center;verticalAlign=middle;whiteSpace=wrap;rounded=0;fontSize=32;" vertex="1" parent="1">
          <mxGeometry x="530" y="570" width="60" height="30" as="geometry" />
        </mxCell>
        <mxCell id="5ykrlOguuD8pohVd0Vsc-72" value="&lt;b&gt;nothing&lt;/b&gt;" style="rounded=1;whiteSpace=wrap;html=1;fontSize=32;strokeColor=#000000;strokeWidth=5;fillColor=none;" vertex="1" parent="1">
          <mxGeometry x="660" y="430" width="160" height="60" as="geometry" />
        </mxCell>
        <mxCell id="5ykrlOguuD8pohVd0Vsc-73" value="" style="endArrow=classic;html=1;rounded=0;fontSize=40;strokeWidth=5;fillColor=#7EA6E0;" edge="1" parent="1">
          <mxGeometry width="50" height="50" relative="1" as="geometry">
            <mxPoint x="840" y="460" as="sourcePoint" />
            <mxPoint x="920" y="500" as="targetPoint" />
          </mxGeometry>
        </mxCell>
        <mxCell id="5ykrlOguuD8pohVd0Vsc-74" value="" style="endArrow=classic;html=1;rounded=0;fontSize=40;strokeWidth=5;fillColor=#7EA6E0;" edge="1" parent="1">
          <mxGeometry width="50" height="50" relative="1" as="geometry">
            <mxPoint x="840" y="575" as="sourcePoint" />
            <mxPoint x="920" y="535" as="targetPoint" />
          </mxGeometry>
        </mxCell>
        <mxCell id="5ykrlOguuD8pohVd0Vsc-75" value="" style="aspect=fixed;html=1;points=[];align=center;image;fontSize=12;image=img/lib/azure2/security/Key_Vaults.svg;fillColor=none;" vertex="1" parent="1">
          <mxGeometry x="1030" y="480" width="80" height="80" as="geometry" />
        </mxCell>
        <mxCell id="5ykrlOguuD8pohVd0Vsc-76" value="" style="endArrow=classic;html=1;rounded=0;fontSize=32;strokeWidth=5;fillColor=#7EA6E0;entryX=1;entryY=0.5;entryDx=0;entryDy=0;" edge="1" parent="1" target="5ykrlOguuD8pohVd0Vsc-56">
          <mxGeometry width="50" height="50" relative="1" as="geometry">
            <mxPoint x="1070" y="570" as="sourcePoint" />
            <mxPoint x="500" y="900" as="targetPoint" />
          </mxGeometry>
        </mxCell>
        <mxCell id="5ykrlOguuD8pohVd0Vsc-77" value="&lt;font style=&quot;font-size: 24px&quot;&gt;write back&lt;/font&gt;" style="edgeLabel;html=1;align=center;verticalAlign=middle;resizable=0;points=[];fontSize=32;" vertex="1" connectable="0" parent="5ykrlOguuD8pohVd0Vsc-76">
          <mxGeometry x="-0.1896" y="1" relative="1" as="geometry">
            <mxPoint as="offset" />
          </mxGeometry>
        </mxCell>
        <mxCell id="5ykrlOguuD8pohVd0Vsc-78" value="keyring" style="label;whiteSpace=wrap;html=1;image=img/clipart/Gear_128x128.png;fontSize=32;strokeColor=#000000;strokeWidth=5;fillColor=none;" vertex="1" parent="1">
          <mxGeometry x="50" y="370" width="180" height="60" as="geometry" />
        </mxCell>
        <mxCell id="5ykrlOguuD8pohVd0Vsc-80" value="" style="endArrow=none;html=1;rounded=0;fontSize=32;strokeWidth=5;fillColor=#7EA6E0;" edge="1" parent="1">
          <mxGeometry width="50" height="50" relative="1" as="geometry">
            <mxPoint x="150" y="520" as="sourcePoint" />
            <mxPoint x="60" y="430" as="targetPoint" />
          </mxGeometry>
        </mxCell>
        <mxCell id="5ykrlOguuD8pohVd0Vsc-81" value="" style="shape=flexArrow;endArrow=classic;html=1;rounded=0;fontSize=32;strokeWidth=5;width=20;fillColor=#7EA6E0;strokeColor=none;" edge="1" parent="1">
          <mxGeometry width="50" height="50" relative="1" as="geometry">
            <mxPoint x="940" y="519.4999999999999" as="sourcePoint" />
            <mxPoint x="1020" y="519.33" as="targetPoint" />
          </mxGeometry>
        </mxCell>
        <mxCell id="5ykrlOguuD8pohVd0Vsc-82" value="" style="endArrow=classic;html=1;rounded=0;fontSize=24;strokeWidth=5;fillColor=#7EA6E0;exitX=1;exitY=0.25;exitDx=0;exitDy=0;entryX=0.098;entryY=1.016;entryDx=0;entryDy=0;entryPerimeter=0;" edge="1" parent="1" source="5ykrlOguuD8pohVd0Vsc-56" target="5ykrlOguuD8pohVd0Vsc-69">
          <mxGeometry width="50" height="50" relative="1" as="geometry">
            <mxPoint x="420" y="830" as="sourcePoint" />
            <mxPoint x="470" y="780" as="targetPoint" />
          </mxGeometry>
        </mxCell>
      </root>
    </mxGraphModel>
  </diagram>
</mxfile>
